<?xml version="1.0" encoding="utf-8"?>
<!-- Generator: Adobe Illustrator 19.1.0, SVG Export Plug-In . SVG Version: 6.00 Build 0)  -->
<svg version="1.1" id="Layer_1" xmlns="http://www.w3.org/2000/svg" xmlns:xlink="http://www.w3.org/1999/xlink" x="0px" y="0px"
	 width="3138px" height="487.9px" viewBox="0 0 3138 487.9" style="enable-background:new 0 0 3138 487.9;" xml:space="preserve">
<g>
	<polygon style="fill:#FFFFFF;" points="3138,0 3138,487.9 0,487.9 0,211.5 510.5,118.9 708,220.5 929,44.8 1165.6,236.7 
		1507.6,152.6 1656,242.6 2058.1,103.1 2133.1,181.6 2209,44.8 2640,226 2942,141.2 	"/>
	<polygon style="fill:#F7F7F7;" points="1507.6,152.6 1656,242.6 1464,299.5 	"/>
	<polygon style="fill:#F7F7F7;" points="2058.1,103.1 2133.1,181.6 2070,285.5 	"/>
	<polygon style="fill:#F7F7F7;" points="929,44.8 1165.6,236.7 1018.3,269.8 	"/>
	<polygon style="fill:#F7F7F7;" points="2209,44.8 2792,436.9 2640,226 	"/>
	<polygon style="fill:#F7F7F7;" points="2942,141.2 3078.7,226 3138,0 	"/>
	<polygon style="fill:#F7F7F7;" points="510.5,118.9 709.1,221.3 591.4,325 543.8,311.8 	"/>
</g>
</svg>
