<?xml version="1.0" encoding="utf-8"?>
<!-- Generator: Adobe Illustrator 19.1.0, SVG Export Plug-In . SVG Version: 6.00 Build 0)  -->
<svg version="1.1" id="Layer_1" xmlns="http://www.w3.org/2000/svg" xmlns:xlink="http://www.w3.org/1999/xlink" x="0px" y="0px"
	 width="3138px" height="495.9px" viewBox="0 0 3138 495.9" style="enable-background:new 0 0 3138 495.9;" xml:space="preserve">
<g>
	<polygon style="fill:#E6E6E6;" points="3138,117.9 3138,495.9 0,495.9 0,78.9 336,180.9 652,53 929,181.9 985.6,181.9 
		1196.8,109.7 1317.1,181.6 1771,30.1 1843.6,117.1 2127.1,0 2204.2,111.6 2314.7,252 2514,90.9 2756,160.6 2686,60.8 3086,113.7 	
		"/>
	<polygon style="fill:#F2F2F2;" points="1771,30 1632,293.5 1913.8,200.8 	"/>
	<polygon style="fill:#F2F2F2;" points="1196.8,109.5 1317.1,181.5 1182,219.5 	"/>
	<polygon style="fill:#F2F2F2;" points="2127.1,0 2314.7,252 2209,337.6 	"/>
	<polygon style="fill:#F2F2F2;" points="652,52.8 578,185.9 688.1,246.3 824.5,135.8 	"/>
	<polygon style="fill:#F2F2F2;" points="2686,60.8 2792,174.5 2756,160.6 	"/>
	<polygon style="fill:#F2F2F2;" points="2514,90.9 2569,228.5 2440.1,149.9 	"/>
</g>
</svg>
