<?xml version="1.0" encoding="utf-8"?>
<!-- Generator: Adobe Illustrator 19.1.0, SVG Export Plug-In . SVG Version: 6.00 Build 0)  -->
<svg version="1.1" id="Layer_1" xmlns="http://www.w3.org/2000/svg" xmlns:xlink="http://www.w3.org/1999/xlink" x="0px" y="0px"
	 width="3138px" height="553px" viewBox="0 0 3138 553" style="enable-background:new 0 0 3138 553;" xml:space="preserve">
<g>
	<path style="fill:#B3B3B3;" d="M3138,121v432H0V171L320,57.1L351.9,171l85.5-44.6l157.5,61.4L929,222.6l313.1-157.6L1534.9,169
		c1.6,0.6,674.1,93.6,674.1,93.6v1.9l134.9-97.9L2738,0L3138,121z"/>
	<polygon style="fill:#CCCCCC;" points="2738,0 2585,306.3 2317.6,186 2343.9,166.6 	"/>
	<polygon style="fill:#CCCCCC;" points="320,57.1 273,203.4 351.9,171 	"/>
	<polygon style="fill:#CCCCCC;" points="437.4,126.3 426,206.6 526.1,160.9 	"/>
	<polygon style="fill:#CCCCCC;" points="1242.1,65.1 1534.9,169 1285,285.6 1309,257.6 	"/>
</g>
</svg>
