<?xml version="1.0" encoding="utf-8"?>
<!-- Generator: Adobe Illustrator 19.1.0, SVG Export Plug-In . SVG Version: 6.00 Build 0)  -->
<svg version="1.1" id="Layer_1" xmlns="http://www.w3.org/2000/svg" xmlns:xlink="http://www.w3.org/1999/xlink" x="0px" y="0px"
	 width="3138px" height="864px" viewBox="0 0 3138 864" style="enable-background:new 0 0 3138 864;" xml:space="preserve">
<polygon style="fill:#333333;" points="0,0 0,448 51.6,463.6 320,368.1 325.4,387.2 351.9,481.8 437,437.2 437,437 437.4,437 
	437,437.2 437,437.3 526.1,472 526.1,472 527.6,472.5 651.8,422.1 652,421.9 665.8,428.5 823.4,501.8 929,417.9 1017.1,489.3 
	1242.1,376.1 1425.9,441.3 1532,479 1771,399.2 1771,399.1 1843.7,486.1 2127.1,369.1 2127.1,369.1 2127.1,369.1 2189.5,453 
	2209,418 2209,418 2209,417.9 2222.2,423.4 2347.5,476.1 2738,311 3080.4,414.6 3138,373.1 3138,0 "/>
</svg>
