<?xml version="1.0" encoding="utf-8"?>
<!-- Generator: Adobe Illustrator 19.1.0, SVG Export Plug-In . SVG Version: 6.00 Build 0)  -->
<svg version="1.1" id="Layer_1" xmlns="http://www.w3.org/2000/svg" xmlns:xlink="http://www.w3.org/1999/xlink" x="0px" y="0px"
	 viewBox="0 0 188.6 188.6" style="enable-background:new 0 0 188.6 188.6;" xml:space="preserve">
<g>
	<path style="fill:#282828;" d="M77.2,172.7c-3.9,0-7.6-1.5-10.3-4.3l-46.7-46.7c-3.7-3.7-5.1-9.1-3.8-14.1l17.1-63.8
		c1.3-5,5.3-9,10.3-10.3l63.8-17.1c1.2-0.3,2.5-0.5,3.8-0.5c3.9,0,7.6,1.5,10.3,4.3l46.7,46.7c3.7,3.7,5.1,9.1,3.8,14.1l-17.1,63.8
		c-1.3,5-5.3,9-10.3,10.3L81,172.2C79.7,172.6,78.5,172.7,77.2,172.7z"/>
	<path style="fill:#282828;" d="M111.4,23.4c1.9,0,3.7,0.7,5,2.1l46.7,46.7c1.8,1.8,2.5,4.4,1.8,6.8l-17.1,63.8
		c-0.7,2.4-2.6,4.4-5,5L79,165c-0.6,0.2-1.2,0.2-1.8,0.2c-1.9,0-3.7-0.7-5-2.1l-46.7-46.7c-1.8-1.8-2.5-4.4-1.8-6.8l17.1-63.8
		c0.7-2.4,2.6-4.4,5-5l63.8-17.1C110.2,23.5,110.8,23.4,111.4,23.4 M111.4,8.4c-1.9,0-3.9,0.3-5.7,0.8L41.9,26.2
		c-7.6,2-13.6,8-15.6,15.6L9.1,105.7c-2,7.6,0.2,15.8,5.7,21.3l46.7,46.7c4.2,4.2,9.7,6.5,15.6,6.5c1.9,0,3.9-0.3,5.7-0.8l63.8-17.1
		c7.6-2,13.6-8,15.6-15.6l17.1-63.8c2-7.6-0.2-15.8-5.7-21.3L127,14.8C122.9,10.7,117.3,8.4,111.4,8.4L111.4,8.4z"/>
	<path style="fill:none;stroke:#F1F2F2;stroke-width:7;stroke-miterlimit:10;" d="M23.6,109.6l17.1-63.8c0.7-2.4,2.6-4.4,5-5
		l63.8-17.1c2.4-0.7,5.1,0,6.8,1.8l46.7,46.7c1.8,1.8,2.5,4.4,1.8,6.8l-17.1,63.8c-0.7,2.4-2.6,4.4-5,5L79,165
		c-2.4,0.7-5.1,0-6.8-1.8l-46.7-46.7C23.7,114.6,23,112,23.6,109.6z"/>
</g>
<g>
	<path style="fill:#F1F2F2;" d="M94.3,137.6L94.3,137.6c-4.2,0-7.7-3.4-7.7-7.7v-10c0-4.2,3.4-7.7,7.7-7.7h0c4.2,0,7.7,3.4,7.7,7.7
		v10C102,134.1,98.5,137.6,94.3,137.6z"/>
	<path style="fill:#F1F2F2;" d="M125,49.3c-4.2,0-7.7,3.4-7.7,7.7c0,0,0,0,0,0c0,4.2-3.4,7.7-7.7,7.7S102,61.2,102,57c0,0,0,0,0,0
		c0-4.2-3.4-7.7-7.7-7.7c-4.2,0-7.7,3.4-7.7,7.7v0c0,4.2-3.5,7.6-7.7,7.6c-4.2,0-7.7-3.4-7.7-7.7c0,0,0,0,0,0c0-4.2-3.4-7.7-7.7-7.7
		s-7.7,3.4-7.7,7.7v72.9c0,4.2,3.4,7.7,7.7,7.7s7.7-3.4,7.7-7.7V83.3c0,0,0,0,0,0c0-4.2,3.4-7.6,7.7-7.6c4.2,0,7.6,3.4,7.7,7.6v14.9
		c0,4.2,3.4,7.7,7.7,7.7c4.2,0,7.7-3.4,7.7-7.7V83.4c0-4.2,3.4-7.7,7.7-7.7s7.7,3.4,7.7,7.7v46.5c0,4.2,3.4,7.7,7.7,7.7
		c4.2,0,7.7-3.4,7.7-7.7V57C132.7,52.8,129.3,49.3,125,49.3z"/>
</g>
</svg>
