<?xml version="1.0" encoding="utf-8"?>
<!-- Generator: Adobe Illustrator 19.1.0, SVG Export Plug-In . SVG Version: 6.00 Build 0)  -->
<svg version="1.1" id="Layer_1" xmlns="http://www.w3.org/2000/svg" xmlns:xlink="http://www.w3.org/1999/xlink" x="0px" y="0px"
	 viewBox="0 0 1280 495.9" style="enable-background:new 0 0 1280 495.9;" xml:space="preserve">
<path style="fill:#1A1A1A;" d="M58.3,178.3L263,108.6c3.1-1,6.4-0.7,9.2,1l111.5,66.8c2.8,1.7,6.1,2,9.1,1l442-147.5
	c4.3-1.4,9-0.1,11.9,3.4l62.6,75c3.1,3.7,8.2,5,12.7,3.1L1189.9,0.8c4.8-2,10.3-0.3,13.3,3.9l74.9,108.4c1.3,1.8,2,4,2,6.3v376.5H0
	v-306c0-6.1,4.9-11,11-11l43.8,0C56,178.9,57.2,178.7,58.3,178.3z"/>
</svg>
