<?xml version="1.0" encoding="utf-8"?>
<!-- Generator: Adobe Illustrator 19.1.0, SVG Export Plug-In . SVG Version: 6.00 Build 0)  -->
<svg version="1.1" id="Layer_1" xmlns="http://www.w3.org/2000/svg" xmlns:xlink="http://www.w3.org/1999/xlink" x="0px" y="0px"
	 viewBox="0 0 1280 433.6" style="enable-background:new 0 0 1280 433.6;" xml:space="preserve">
<path style="fill:#282828;" d="M18,2.5l214.4,173.9c2.7,2.2,6.2,3,9.6,2.1l332.2-81.7c2.8-0.7,5.8-0.2,8.3,1.3L722.6,183
	c2.8,1.7,6.2,2.1,9.3,1l390.8-135.6c3.9-1.4,8.3-0.4,11.2,2.5l63.9,61.4c3.6,3.5,9.2,4.1,13.5,1.4l40.7-25.5
	c6.1-3.8,14.1-0.9,16.3,6l11.1,34.4c0.4,1.1,0.5,2.2,0.5,3.4v301.7H0V11C0,1.8,10.8-3.4,18,2.5z"/>
</svg>
